<mxfile host="app.diagrams.net" modified="2022-01-14T02:41:26.533Z" agent="5.0 (Windows NT 10.0; Win64; x64) AppleWebKit/537.36 (KHTML, like Gecko) Chrome/95.0.4638.54 Safari/537.36" etag="FZSUNUAmO9HH3lVDmdxe" version="16.2.6" type="github">
  <diagram id="67UzCH-UmaTjEAk3DXul" name="Page-1">
    <mxGraphModel dx="1422" dy="762" grid="1" gridSize="10" guides="1" tooltips="1" connect="1" arrows="1" fold="1" page="1" pageScale="1" pageWidth="827" pageHeight="1169" math="0" shadow="0">
      <root>
        <mxCell id="0" />
        <mxCell id="1" parent="0" />
        <mxCell id="cEJcOBcTWI5DW-f-U2_o-2" style="edgeStyle=orthogonalEdgeStyle;rounded=0;orthogonalLoop=1;jettySize=auto;html=1;exitX=1;exitY=0.5;exitDx=0;exitDy=0;exitPerimeter=0;" edge="1" parent="1" source="cEJcOBcTWI5DW-f-U2_o-1" target="cEJcOBcTWI5DW-f-U2_o-3">
          <mxGeometry relative="1" as="geometry">
            <mxPoint x="340" y="200" as="targetPoint" />
          </mxGeometry>
        </mxCell>
        <mxCell id="cEJcOBcTWI5DW-f-U2_o-1" value="Real world data" style="shape=cylinder3;whiteSpace=wrap;html=1;boundedLbl=1;backgroundOutline=1;size=15;" vertex="1" parent="1">
          <mxGeometry x="160" y="160" width="120" height="80" as="geometry" />
        </mxCell>
        <mxCell id="cEJcOBcTWI5DW-f-U2_o-15" style="edgeStyle=orthogonalEdgeStyle;rounded=0;orthogonalLoop=1;jettySize=auto;html=1;exitX=1;exitY=0.5;exitDx=0;exitDy=0;entryX=0;entryY=0.5;entryDx=0;entryDy=0;curved=1;" edge="1" parent="1" source="cEJcOBcTWI5DW-f-U2_o-3" target="cEJcOBcTWI5DW-f-U2_o-14">
          <mxGeometry relative="1" as="geometry" />
        </mxCell>
        <mxCell id="cEJcOBcTWI5DW-f-U2_o-3" value="sample" style="rounded=0;whiteSpace=wrap;html=1;" vertex="1" parent="1">
          <mxGeometry x="340" y="170" width="80" height="60" as="geometry" />
        </mxCell>
        <mxCell id="cEJcOBcTWI5DW-f-U2_o-13" style="edgeStyle=orthogonalEdgeStyle;rounded=0;orthogonalLoop=1;jettySize=auto;html=1;exitX=1;exitY=0.5;exitDx=0;exitDy=0;entryX=0;entryY=0.5;entryDx=0;entryDy=0;" edge="1" parent="1" source="cEJcOBcTWI5DW-f-U2_o-4" target="cEJcOBcTWI5DW-f-U2_o-12">
          <mxGeometry relative="1" as="geometry" />
        </mxCell>
        <mxCell id="cEJcOBcTWI5DW-f-U2_o-4" value="Generator" style="rounded=0;whiteSpace=wrap;html=1;" vertex="1" parent="1">
          <mxGeometry x="160" y="345" width="120" height="60" as="geometry" />
        </mxCell>
        <mxCell id="cEJcOBcTWI5DW-f-U2_o-6" value="" style="edgeStyle=orthogonalEdgeStyle;rounded=0;orthogonalLoop=1;jettySize=auto;html=1;" edge="1" parent="1" source="cEJcOBcTWI5DW-f-U2_o-5" target="cEJcOBcTWI5DW-f-U2_o-4">
          <mxGeometry relative="1" as="geometry" />
        </mxCell>
        <mxCell id="cEJcOBcTWI5DW-f-U2_o-5" value="" style="rounded=0;whiteSpace=wrap;html=1;" vertex="1" parent="1">
          <mxGeometry x="80" y="300" width="35" height="150" as="geometry" />
        </mxCell>
        <mxCell id="cEJcOBcTWI5DW-f-U2_o-8" value="" style="ellipse;whiteSpace=wrap;html=1;aspect=fixed;" vertex="1" parent="1">
          <mxGeometry x="87.5" y="325" width="20" height="20" as="geometry" />
        </mxCell>
        <mxCell id="cEJcOBcTWI5DW-f-U2_o-9" value="" style="ellipse;whiteSpace=wrap;html=1;aspect=fixed;fontStyle=1" vertex="1" parent="1">
          <mxGeometry x="87.5" y="365" width="20" height="20" as="geometry" />
        </mxCell>
        <mxCell id="cEJcOBcTWI5DW-f-U2_o-10" value="" style="ellipse;whiteSpace=wrap;html=1;aspect=fixed;" vertex="1" parent="1">
          <mxGeometry x="87.5" y="405" width="20" height="20" as="geometry" />
        </mxCell>
        <mxCell id="cEJcOBcTWI5DW-f-U2_o-11" value="latent random variable" style="text;html=1;strokeColor=none;fillColor=none;align=center;verticalAlign=middle;whiteSpace=wrap;rounded=0;" vertex="1" parent="1">
          <mxGeometry x="10" y="335" width="60" height="80" as="geometry" />
        </mxCell>
        <mxCell id="cEJcOBcTWI5DW-f-U2_o-17" style="edgeStyle=orthogonalEdgeStyle;curved=1;rounded=0;orthogonalLoop=1;jettySize=auto;html=1;exitX=1;exitY=0.5;exitDx=0;exitDy=0;entryX=0;entryY=0.5;entryDx=0;entryDy=0;" edge="1" parent="1" source="cEJcOBcTWI5DW-f-U2_o-12" target="cEJcOBcTWI5DW-f-U2_o-14">
          <mxGeometry relative="1" as="geometry" />
        </mxCell>
        <mxCell id="cEJcOBcTWI5DW-f-U2_o-12" value="sample" style="rounded=0;whiteSpace=wrap;html=1;" vertex="1" parent="1">
          <mxGeometry x="340" y="345" width="80" height="60" as="geometry" />
        </mxCell>
        <mxCell id="cEJcOBcTWI5DW-f-U2_o-18" style="edgeStyle=orthogonalEdgeStyle;curved=1;rounded=0;orthogonalLoop=1;jettySize=auto;html=1;exitX=1;exitY=0.5;exitDx=0;exitDy=0;" edge="1" parent="1" source="cEJcOBcTWI5DW-f-U2_o-14">
          <mxGeometry relative="1" as="geometry">
            <mxPoint x="620" y="295" as="targetPoint" />
          </mxGeometry>
        </mxCell>
        <mxCell id="cEJcOBcTWI5DW-f-U2_o-14" value="Discriminator" style="rounded=0;whiteSpace=wrap;html=1;" vertex="1" parent="1">
          <mxGeometry x="490" y="270" width="100" height="50" as="geometry" />
        </mxCell>
        <mxCell id="cEJcOBcTWI5DW-f-U2_o-20" style="edgeStyle=orthogonalEdgeStyle;curved=1;rounded=0;orthogonalLoop=1;jettySize=auto;html=1;exitX=1;exitY=0.5;exitDx=0;exitDy=0;" edge="1" parent="1" source="cEJcOBcTWI5DW-f-U2_o-19">
          <mxGeometry relative="1" as="geometry">
            <mxPoint x="690" y="295" as="targetPoint" />
          </mxGeometry>
        </mxCell>
        <mxCell id="cEJcOBcTWI5DW-f-U2_o-19" value="real&lt;br&gt;or&lt;br&gt;fake" style="rounded=0;whiteSpace=wrap;html=1;" vertex="1" parent="1">
          <mxGeometry x="620" y="232.5" width="40" height="125" as="geometry" />
        </mxCell>
        <mxCell id="cEJcOBcTWI5DW-f-U2_o-21" value="loss" style="rounded=0;whiteSpace=wrap;html=1;" vertex="1" parent="1">
          <mxGeometry x="690" y="232.5" width="40" height="125" as="geometry" />
        </mxCell>
      </root>
    </mxGraphModel>
  </diagram>
</mxfile>
